<svg width="33" height="32" viewBox="0 0 33 32" fill="none" xmlns="http://www.w3.org/2000/svg">
<path d="M15.9732 4.57153C1.43905 5.03173 1.43559 26.1091 15.9732 26.5715C30.5071 26.1113 30.5106 5.03393 15.9732 4.57153ZM21.4732 16.3572H16.7589V21.0715C16.7589 21.2799 16.6761 21.4798 16.5288 21.6271C16.3814 21.7745 16.1816 21.8572 15.9732 21.8572C15.7648 21.8572 15.565 21.7745 15.4176 21.6271C15.2703 21.4798 15.1875 21.2799 15.1875 21.0715V16.3572H10.4732C10.2648 16.3572 10.065 16.2745 9.91761 16.1271C9.77026 15.9798 9.68748 15.7799 9.68748 15.5715C9.68748 15.3631 9.77026 15.1633 9.91761 15.0159C10.065 14.8686 10.2648 14.7858 10.4732 14.7858H15.1875V10.0715C15.1875 9.86315 15.2703 9.6633 15.4176 9.51595C15.565 9.3686 15.7648 9.28582 15.9732 9.28582C16.1816 9.28582 16.3814 9.3686 16.5288 9.51595C16.6761 9.6633 16.7589 9.86315 16.7589 10.0715V14.7858H21.4732C21.6816 14.7858 21.8814 14.8686 22.0288 15.0159C22.1761 15.1633 22.2589 15.3631 22.2589 15.5715C22.2589 15.7799 22.1761 15.9798 22.0288 16.1271C21.8814 16.2745 21.6816 16.3572 21.4732 16.3572Z" fill="currentColor"/>
</svg>
