<svg width="14" height="13" viewBox="0 0 14 13" fill="none" xmlns="http://www.w3.org/2000/svg">
<path d="M6.25 1.06396V4.56396C6.25 4.82918 6.14464 5.08354 5.95711 5.27107C5.76957 5.45861 5.51522 5.56396 5.25 5.56396H1.75C1.48478 5.56396 1.23043 5.45861 1.04289 5.27107C0.855357 5.08354 0.75 4.82918 0.75 4.56396V1.06396C0.75 0.798748 0.855357 0.544394 1.04289 0.356858C1.23043 0.169322 1.48478 0.0639648 1.75 0.0639648H5.25C5.51522 0.0639648 5.76957 0.169322 5.95711 0.356858C6.14464 0.544394 6.25 0.798748 6.25 1.06396ZM12.25 0.0639648H8.75C8.48478 0.0639648 8.23043 0.169322 8.04289 0.356858C7.85536 0.544394 7.75 0.798748 7.75 1.06396V4.56396C7.75 4.82918 7.85536 5.08354 8.04289 5.27107C8.23043 5.45861 8.48478 5.56396 8.75 5.56396H12.25C12.5152 5.56396 12.7696 5.45861 12.9571 5.27107C13.1446 5.08354 13.25 4.82918 13.25 4.56396V1.06396C13.25 0.798748 13.1446 0.544394 12.9571 0.356858C12.7696 0.169322 12.5152 0.0639648 12.25 0.0639648ZM5.25 7.06396H1.75C1.48478 7.06396 1.23043 7.16932 1.04289 7.35686C0.855357 7.54439 0.75 7.79875 0.75 8.06396V11.564C0.75 11.8292 0.855357 12.0835 1.04289 12.2711C1.23043 12.4586 1.48478 12.564 1.75 12.564H5.25C5.51522 12.564 5.76957 12.4586 5.95711 12.2711C6.14464 12.0835 6.25 11.8292 6.25 11.564V8.06396C6.25 7.79875 6.14464 7.54439 5.95711 7.35686C5.76957 7.16932 5.51522 7.06396 5.25 7.06396ZM10.5 7.06396C9.9561 7.06396 9.42442 7.22525 8.97218 7.52742C8.51995 7.8296 8.16747 8.25909 7.95933 8.76159C7.75119 9.26408 7.69673 9.81701 7.80284 10.3505C7.90895 10.8839 8.17086 11.3739 8.55546 11.7585C8.94005 12.1431 9.43005 12.405 9.9635 12.5111C10.497 12.6172 11.0499 12.5628 11.5524 12.3546C12.0549 12.1465 12.4844 11.794 12.7865 11.3418C13.0887 10.8895 13.25 10.3579 13.25 9.81396C13.25 9.08462 12.9603 8.38515 12.4445 7.86942C11.9288 7.3537 11.2293 7.06396 10.5 7.06396Z" fill="#E7F6FF"/>
</svg>
