<svg width="20" height="21" viewBox="0 0 20 21" fill="none" xmlns="http://www.w3.org/2000/svg">
<g clip-path="url(#clip0_102_8)">
<path d="M0 10.314C0 4.79996 4.486 0.313965 10 0.313965C12.227 0.313965 14.3348 1.03044 16.0956 2.38596L13.7718 5.40463C12.683 4.56654 11.3788 4.12349 10 4.12349C6.58657 4.12349 3.80952 6.90054 3.80952 10.314C3.80952 13.7274 6.58657 16.5044 10 16.5044C12.7492 16.5044 15.0855 14.7032 15.8907 12.2187H10V8.4092H20V10.314C20 15.828 15.514 20.314 10 20.314C4.486 20.314 0 15.828 0 10.314Z" fill="#E7F6FF"/>
</g>
<defs>
<clipPath id="clip0_102_8">
<rect width="20" height="20" fill="white" transform="translate(0 0.313965)"/>
</clipPath>
</defs>
</svg>
