<svg width="28" height="28" viewBox="0 0 28 28" fill="none" xmlns="http://www.w3.org/2000/svg">
<path d="M26.0787 12.121C25.9464 12.3116 25.7439 12.442 25.5156 12.4835C25.2874 12.525 25.0519 12.4742 24.861 12.3423L14.4837 5.15772C14.337 5.05677 14.1632 5.00276 13.9852 5.00284C13.8072 5.00292 13.6334 5.05708 13.4869 5.15814L3.13985 12.3414C2.94925 12.4733 2.71412 12.5241 2.48609 12.4827C2.25805 12.4414 2.05574 12.3112 1.92355 12.1209C1.79136 11.9305 1.7401 11.6955 1.78102 11.4674C1.82194 11.2393 1.95169 11.0367 2.1418 10.9042L12.4889 3.72089C12.9286 3.41776 13.45 3.25526 13.9841 3.25488C14.5182 3.2545 15.0398 3.41626 15.48 3.71875L25.8574 10.9033C26.0482 11.0354 26.1787 11.238 26.2202 11.4663C26.2617 11.6947 26.2108 11.9302 26.0787 12.121ZM22.4599 12.0458L14.4867 6.71038C14.3427 6.61386 14.1733 6.56233 14 6.56233C13.8267 6.56233 13.6573 6.61386 13.5134 6.71038L5.54012 12.0458C5.18132 12.2854 4.88724 12.6099 4.68399 12.9904C4.48074 13.371 4.37461 13.7959 4.37502 14.2273V21.875C4.37578 22.571 4.65259 23.2382 5.1447 23.7303C5.63682 24.2224 6.30406 24.4992 7.00002 24.5H10.5V19.25C10.5 18.5538 10.7766 17.8861 11.2689 17.3938C11.7611 16.9016 12.4288 16.625 13.125 16.625H14.875C15.5712 16.625 16.2389 16.9016 16.7312 17.3938C17.2235 17.8861 17.5 18.5538 17.5 19.25V24.5H21C21.696 24.4992 22.3632 24.2224 22.8553 23.7303C23.3475 23.2382 23.6243 22.571 23.625 21.875V14.2273C23.6254 13.7959 23.5193 13.371 23.316 12.9904C23.1128 12.6099 22.8187 12.2854 22.4599 12.0458ZM23.625 5.25C23.625 4.78587 23.4406 4.34075 23.1125 4.01256C22.7843 3.68438 22.3391 3.5 21.875 3.5H21C20.695 3.50067 20.3955 3.58139 20.1315 3.73409C19.8674 3.88678 19.6481 4.10611 19.4954 4.37015L23.625 7.22911V5.25Z" fill="currentColor"/>
</svg>
