<svg width="18" height="16" viewBox="0 0 18 16" fill="none" xmlns="http://www.w3.org/2000/svg">
<path fill-rule="evenodd" clip-rule="evenodd" d="M7.74986 14.25C7.74986 13.5596 8.30951 13 8.99986 13H16.4998C17.1902 13 17.7498 13.5596 17.7498 14.25C17.7498 14.9403 17.1902 15.5 16.4998 15.5H8.99986C8.30951 15.5 7.74986 14.9403 7.74986 14.25ZM0.249878 1.75C0.249878 1.05964 0.809514 0.5 1.49988 0.5H16.4998C17.1902 0.5 17.7498 1.05964 17.7498 1.75C17.7498 2.44035 17.1902 2.99999 16.4998 2.99999H1.49988C0.809514 2.99999 0.249878 2.44035 0.249878 1.75ZM0.249878 7.99998C0.249878 7.30964 0.809514 6.74999 1.49988 6.74999H16.4998C17.1902 6.74999 17.7498 7.30964 17.7498 7.99998C17.7498 8.69036 17.1902 9.24998 16.4998 9.24998H1.49988C0.809514 9.24998 0.249878 8.69036 0.249878 7.99998Z" fill="#E7F6FF"/>
</svg>
