<svg width="28" height="28" viewBox="0 0 28 28" fill="none" xmlns="http://www.w3.org/2000/svg">
<path d="M9.03584 7.55357C9.03584 6.65296 9.3029 5.77258 9.80325 5.02375C10.3036 4.27491 11.0148 3.69127 11.8468 3.34662C12.6789 3.00197 13.5945 2.9118 14.4778 3.0875C15.3611 3.2632 16.1724 3.69688 16.8093 4.33371C17.4461 4.97054 17.8798 5.78191 18.0555 6.66522C18.2312 7.54852 18.141 8.46409 17.7964 9.29615C17.4517 10.1282 16.8681 10.8394 16.1192 11.3397C15.3704 11.8401 14.49 12.1071 13.5894 12.1071C12.3821 12.1058 11.2247 11.6257 10.371 10.772C9.51733 9.9183 9.03716 8.76085 9.03584 7.55357ZM13.5894 12.8661C11.5773 12.8683 9.64823 13.6686 8.22544 15.0914C6.80266 16.5142 6.00236 18.4432 6.00012 20.4554V21.9732C6.00078 22.5769 6.24087 23.1556 6.6677 23.5824C7.09454 24.0093 7.67327 24.2493 8.27691 24.25H18.9019C19.5055 24.2493 20.0843 24.0093 20.5111 23.5824C20.9379 23.1556 21.178 22.5769 21.1787 21.9732V20.4554C21.1765 18.4432 20.3762 16.5142 18.9534 15.0914C17.5306 13.6686 15.6015 12.8683 13.5894 12.8661Z" fill="currentColor"/>
</svg>
